<?xml version="1.0" standalone="no"?>
<!DOCTYPE svg PUBLIC "-//W3C//DTD SVG 20010904//EN"
 "http://www.w3.org/TR/2001/REC-SVG-20010904/DTD/svg10.dtd">
<svg version="1.0" xmlns="http://www.w3.org/2000/svg"
 width="736.000000pt" height="736.000000pt" viewBox="0 0 736.000000 736.000000"
 preserveAspectRatio="xMidYMid meet">

<g transform="translate(0.000000,736.000000) scale(0.100000,-0.100000)"
fill="#000000" stroke="none">
<path d="M2428 5918 c-24 -28 -70 -81 -104 -117 -33 -36 -95 -109 -137 -162
-42 -53 -94 -112 -115 -131 -72 -65 -139 -155 -212 -284 -40 -71 -93 -154
-119 -184 -72 -84 -88 -111 -146 -237 -60 -134 -84 -202 -149 -428 -51 -173
-96 -279 -170 -392 -54 -84 -104 -128 -207 -181 -86 -45 -82 -36 -95 -248 -10
-181 16 -390 76 -594 32 -108 114 -282 159 -340 l19 -24 154 76 c229 114 319
138 522 138 88 0 142 -6 196 -20 128 -34 181 -28 375 39 94 32 213 75 265 96
135 52 194 71 309 95 112 23 226 63 254 87 39 35 86 123 111 205 15 48 51 144
81 213 59 136 68 184 35 206 -19 14 -19 16 -4 64 22 68 30 334 12 390 -11 33
-36 58 -163 158 -157 124 -266 202 -325 232 -31 16 -53 17 -205 12 -97 -4
-198 -13 -235 -22 -81 -19 -165 -52 -181 -71 -19 -23 -29 -16 -18 15 7 19 45
57 112 108 292 227 302 233 398 234 41 0 123 4 183 8 l109 9 79 -69 c96 -82
184 -129 244 -129 51 0 114 44 148 102 l21 37 -30 31 c-17 17 -66 55 -110 84
-44 29 -115 85 -157 123 -96 87 -114 92 -351 103 -162 7 -186 6 -250 -11 -102
-28 -205 -65 -336 -120 -63 -27 -116 -47 -118 -45 -2 1 50 43 114 92 65 49
149 119 188 155 53 50 84 70 125 84 30 9 102 37 160 60 65 26 156 53 239 69
74 15 144 32 155 38 89 45 125 150 70 205 -24 24 -30 25 -97 20 -135 -10 -342
-38 -382 -52 -63 -21 -273 -113 -339 -148 -98 -51 -152 -88 -304 -206 -79 -61
-148 -108 -153 -105 -19 11 57 116 298 412 143 176 155 201 133 275 -12 39
-58 97 -79 97 -5 0 -29 -23 -53 -52z m579 -1727 c48 -32 117 -71 153 -86 l65
-27 33 -102 c19 -60 49 -127 72 -162 22 -32 40 -61 40 -64 0 -3 -39 -46 -87
-95 -60 -62 -99 -111 -122 -157 -18 -37 -39 -72 -46 -78 -9 -7 -35 -7 -86 1
-112 17 -288 -3 -390 -45 -12 -5 -25 7 -50 46 -18 29 -81 103 -140 164 -59 61
-111 122 -114 137 -8 30 46 227 76 276 33 54 129 116 218 140 80 22 190 64
246 94 17 9 33 16 37 17 4 0 46 -26 95 -59z"/>
<path d="M5975 4705 c-144 -78 -257 -120 -372 -140 -109 -19 -250 -19 -333 1
-36 8 -106 18 -155 21 -81 5 -98 2 -165 -22 -41 -14 -124 -44 -185 -64 -60
-21 -121 -43 -135 -49 -92 -39 -232 -84 -335 -106 -200 -44 -241 -62 -296
-128 -25 -31 -54 -76 -62 -100 -43 -122 -70 -193 -111 -293 -51 -123 -58 -178
-25 -195 14 -8 18 -17 14 -28 -26 -64 -36 -147 -33 -284 3 -130 5 -150 24
-175 35 -47 387 -314 471 -357 23 -12 59 -16 135 -16 195 0 391 37 464 86 19
13 39 24 44 24 20 0 -13 -59 -48 -87 -80 -64 -241 -182 -307 -226 l-71 -47
-164 -10 c-91 -5 -175 -12 -187 -16 -16 -5 -39 10 -103 65 -97 84 -185 131
-246 131 -53 0 -120 -47 -148 -103 l-18 -38 28 -30 c16 -17 65 -54 109 -83 44
-30 109 -80 145 -113 36 -33 79 -67 96 -76 48 -25 190 -39 351 -35 l148 3 150
52 c83 28 190 70 239 93 48 22 90 39 92 37 2 -2 -58 -51 -133 -108 -76 -57
-162 -127 -192 -155 -41 -41 -70 -58 -130 -79 -42 -15 -110 -42 -151 -60 -42
-18 -129 -44 -195 -59 -168 -37 -207 -52 -243 -89 -80 -83 -47 -187 60 -187
18 0 70 7 116 15 46 8 118 17 160 21 42 4 114 20 159 35 122 43 316 133 402
186 67 42 232 168 301 230 26 24 58 38 66 30 13 -12 -126 -201 -314 -427 -108
-129 -132 -170 -132 -217 1 -39 34 -109 60 -123 32 -17 57 -3 102 58 22 31 62
77 87 102 26 25 73 78 105 119 33 41 107 124 165 186 78 82 119 135 155 201
27 49 62 113 79 142 16 30 56 83 87 119 97 109 185 309 278 630 58 199 94 287
155 386 62 99 107 141 214 198 l92 50 8 67 c13 113 7 368 -12 487 -19 125 -71
305 -116 403 -35 79 -110 212 -118 211 -3 0 -60 -29 -126 -64z m-1235 -762
c14 -27 75 -98 136 -160 62 -62 115 -124 118 -138 7 -26 -29 -176 -58 -247
-16 -37 -80 -101 -136 -135 -19 -11 -75 -33 -124 -48 -49 -14 -126 -44 -171
-66 -46 -21 -87 -39 -92 -39 -5 0 -36 21 -69 46 -32 26 -100 67 -151 91 l-91
43 -22 73 c-28 91 -62 164 -99 211 l-29 37 87 87 c68 67 98 106 131 170 l43
83 56 -8 c102 -14 240 -5 331 21 47 13 92 24 100 25 8 0 26 -20 40 -46z"/>
</g>
</svg>
